<?xml version="1.0" encoding="UTF-8"?>
<!DOCTYPE svg PUBLIC "-//W3C//DTD SVG 1.1//EN" "http://www.w3.org/Graphics/SVG/1.1/DTD/svg11.dtd">
<svg xmlns="http://www.w3.org/2000/svg" version="1.1" width="130px" height="130px" style="shape-rendering:geometricPrecision; text-rendering:geometricPrecision; image-rendering:optimizeQuality; fill-rule:evenodd; clip-rule:evenodd" xmlns:xlink="http://www.w3.org/1999/xlink">
<g><path style="opacity:0.823" fill="#f1f1f1" d="M 62.5,16.5 C 79.3655,20.9547 96.0321,26.1214 112.5,32C 115.964,37.762 119.797,43.262 124,48.5C 124.825,50.7008 124.325,52.5341 122.5,54C 119.5,55.5 116.5,57 113.5,58.5C 112.501,72.1504 112.167,85.8171 112.5,99.5C 97.0917,106.619 81.5917,113.619 66,120.5C 49.5257,113.344 33.0257,106.344 16.5,99.5C 16.8325,85.8171 16.4992,72.1504 15.5,58.5C 11.7143,57.1074 8.04768,55.4407 4.5,53.5C 3.36912,51.9255 3.20245,50.2588 4,48.5C 8.30975,42.6894 12.8097,37.0227 17.5,31.5C 32.6712,26.6651 47.6712,21.6651 62.5,16.5 Z M 64.5,20.5 C 77.5092,24.8923 90.5092,29.3923 103.5,34C 90.9829,39.504 78.4829,45.004 66,50.5C 52.8503,45.0043 39.6837,39.5043 26.5,34C 39.1289,29.1807 51.7956,24.6807 64.5,20.5 Z M 18.5,36.5 C 33.262,42.0331 47.9287,47.8665 62.5,54C 58.5435,59.4127 54.7101,64.9127 51,70.5C 36.8789,63.5224 22.7122,56.6891 8.5,50C 12.4609,45.8856 15.7942,41.3856 18.5,36.5 Z M 108.5,36.5 C 112.627,40.477 116.294,44.977 119.5,50C 107.198,56.1511 94.8644,62.3178 82.5,68.5C 78.01,63.8414 73.6767,59.0081 69.5,54C 82.5596,48.1337 95.5596,42.3004 108.5,36.5 Z M 65.5,56.5 C 69.4605,60.3972 72.9605,64.7305 76,69.5C 77.439,71.448 79.2723,72.7814 81.5,73.5C 90.1616,69.5027 98.8282,65.5027 107.5,61.5C 108.82,73.0618 108.82,84.5618 107.5,96C 93.7146,102.643 79.8812,109.143 66,115.5C 50.7613,109.381 35.7613,102.714 21,95.5C 20.1675,84.152 20.3342,72.8187 21.5,61.5C 31.2874,66.3955 41.2874,70.7288 51.5,74.5C 52.7716,74.4302 53.9383,74.0968 55,73.5C 58.7518,67.9309 62.2518,62.2642 65.5,56.5 Z"/></g>
<g><path style="opacity:0.861" fill="#f1f1f1" d="M 50.5,76.5 C 51.9778,76.238 53.3112,76.5713 54.5,77.5C 53.0183,79.7097 53.5183,81.3764 56,82.5C 57.3086,80.1088 58.3086,80.1088 59,82.5C 58.9291,89.471 55.4291,91.971 48.5,90C 44.9358,87.006 44.1024,83.506 46,79.5C 47.4087,78.2189 48.9087,77.2189 50.5,76.5 Z"/></g>
<g><path style="opacity:0.863" fill="#f1f1f1" d="M 75.5,76.5 C 77.4286,76.2308 79.0953,76.7308 80.5,78C 78.9005,81.564 79.9005,82.7307 83.5,81.5C 85.0209,88.8098 82.0209,91.6431 74.5,90C 68.9962,85.1499 69.3296,80.6499 75.5,76.5 Z"/></g>
<g><path style="opacity:0.78" fill="#f1f1f1" d="M 52.5,95.5 C 56.3966,97.5237 60.5632,98.8571 65,99.5C 69.4368,98.8571 73.6034,97.5237 77.5,95.5C 77.822,97.7224 77.1554,99.5557 75.5,101C 66.4767,106.402 58.4767,105.235 51.5,97.5C 51.8627,96.8165 52.1961,96.1499 52.5,95.5 Z"/></g>
</svg>
