<?xml version="1.0" encoding="UTF-8"?>
<!DOCTYPE svg PUBLIC "-//W3C//DTD SVG 1.1//EN" "http://www.w3.org/Graphics/SVG/1.1/DTD/svg11.dtd">
<svg xmlns="http://www.w3.org/2000/svg" version="1.1" width="130px" height="130px" style="shape-rendering:geometricPrecision; text-rendering:geometricPrecision; image-rendering:optimizeQuality; fill-rule:evenodd; clip-rule:evenodd" xmlns:xlink="http://www.w3.org/1999/xlink">
<g><path style="opacity:0.804" fill="#000000" d="M 62.5,13.5 C 79.3655,17.9547 96.0321,23.1214 112.5,29C 115.964,34.762 119.797,40.262 124,45.5C 124.825,47.7008 124.325,49.5341 122.5,51C 119.5,52.5 116.5,54 113.5,55.5C 112.501,69.1504 112.167,82.8171 112.5,96.5C 97.0917,103.619 81.5917,110.619 66,117.5C 49.5257,110.344 33.0257,103.344 16.5,96.5C 16.8325,82.8171 16.4992,69.1504 15.5,55.5C 11.7143,54.1074 8.04768,52.4407 4.5,50.5C 3.36912,48.9255 3.20245,47.2588 4,45.5C 8.30975,39.6894 12.8097,34.0227 17.5,28.5C 32.6712,23.6651 47.6712,18.6651 62.5,13.5 Z M 64.5,17.5 C 77.5092,21.8923 90.5092,26.3923 103.5,31C 90.9829,36.504 78.4829,42.004 66,47.5C 52.8503,42.0043 39.6837,36.5043 26.5,31C 39.1289,26.1807 51.7956,21.6807 64.5,17.5 Z M 18.5,33.5 C 33.262,39.0331 47.9287,44.8665 62.5,51C 58.5435,56.4127 54.7101,61.9127 51,67.5C 36.8789,60.5224 22.7122,53.6891 8.5,47C 12.4609,42.8856 15.7942,38.3856 18.5,33.5 Z M 108.5,33.5 C 112.627,37.477 116.294,41.977 119.5,47C 107.198,53.1511 94.8644,59.3178 82.5,65.5C 78.01,60.8414 73.6767,56.0081 69.5,51C 82.5596,45.1337 95.5596,39.3004 108.5,33.5 Z M 65.5,53.5 C 69.4605,57.3972 72.9605,61.7305 76,66.5C 77.439,68.448 79.2723,69.7814 81.5,70.5C 90.1616,66.5027 98.8282,62.5027 107.5,58.5C 108.82,70.0618 108.82,81.5618 107.5,93C 93.7146,99.6432 79.8812,106.143 66,112.5C 50.7613,106.381 35.7613,99.7142 21,92.5C 20.1675,81.152 20.3342,69.8187 21.5,58.5C 31.2874,63.3955 41.2874,67.7288 51.5,71.5C 52.7716,71.4302 53.9383,71.0968 55,70.5C 58.7518,64.9309 62.2518,59.2642 65.5,53.5 Z"/></g>
<g><path style="opacity:0.852" fill="#000000" d="M 50.5,73.5 C 51.9778,73.238 53.3112,73.5713 54.5,74.5C 53.0183,76.7097 53.5183,78.3764 56,79.5C 57.3086,77.1088 58.3086,77.1088 59,79.5C 58.9291,86.471 55.4291,88.971 48.5,87C 44.9358,84.006 44.1024,80.506 46,76.5C 47.4087,75.2189 48.9087,74.2189 50.5,73.5 Z"/></g>
<g><path style="opacity:0.859" fill="#000000" d="M 75.5,73.5 C 77.4286,73.2308 79.0953,73.7308 80.5,75C 78.9005,78.564 79.9005,79.7307 83.5,78.5C 85.0209,85.8098 82.0209,88.6431 74.5,87C 68.9962,82.1499 69.3296,77.6499 75.5,73.5 Z"/></g>
<g><path style="opacity:0.762" fill="#000000" d="M 52.5,92.5 C 56.3966,94.5237 60.5632,95.8571 65,96.5C 69.4368,95.8571 73.6034,94.5237 77.5,92.5C 77.822,94.7224 77.1554,96.5557 75.5,98C 66.4767,103.402 58.4767,102.235 51.5,94.5C 51.8627,93.8165 52.1961,93.1499 52.5,92.5 Z"/></g>
</svg>
